<svg width="590" height="99" viewBox="0 0 590 99" fill="none" xmlns="http://www.w3.org/2000/svg">
<path d="M18.4781 37.576C15.8861 37.576 13.4701 37.16 11.2301 36.328C9.02206 35.464 7.10206 34.248 5.47006 32.68C3.83806 31.112 2.55806 29.272 1.63006 27.16C0.734063 25.048 0.286063 22.728 0.286063 20.2C0.286063 17.672 0.734063 15.352 1.63006 13.24C2.55806 11.128 3.83806 9.288 5.47006 7.72C7.13406 6.152 9.07006 4.952 11.2781 4.12C13.4861 3.256 15.9021 2.824 18.5261 2.824C21.4381 2.824 24.0621 3.336 26.3981 4.36C28.7661 5.352 30.7501 6.824 32.3501 8.776L27.3581 13.384C26.2061 12.072 24.9261 11.096 23.5181 10.456C22.1101 9.784 20.5741 9.448 18.9101 9.448C17.3421 9.448 15.9021 9.704 14.5901 10.216C13.2781 10.728 12.1421 11.464 11.1821 12.424C10.2221 13.384 9.47006 14.52 8.92606 15.832C8.41406 17.144 8.15806 18.6 8.15806 20.2C8.15806 21.8 8.41406 23.256 8.92606 24.568C9.47006 25.88 10.2221 27.016 11.1821 27.976C12.1421 28.936 13.2781 29.672 14.5901 30.184C15.9021 30.696 17.3421 30.952 18.9101 30.952C20.5741 30.952 22.1101 30.632 23.5181 29.992C24.9261 29.32 26.2061 28.312 27.3581 26.968L32.3501 31.576C30.7501 33.528 28.7661 35.016 26.3981 36.04C24.0621 37.064 21.4221 37.576 18.4781 37.576ZM41.6591 37V15.592L43.3391 17.32H32.9231V11.176H57.8351V17.32H47.4191L49.0991 15.592V37H41.6591ZM72.8444 37.384C70.0924 37.384 67.6444 36.808 65.5004 35.656C63.3884 34.504 61.7084 32.936 60.4604 30.952C59.2444 28.936 58.6364 26.648 58.6364 24.088C58.6364 21.496 59.2444 19.208 60.4604 17.224C61.7084 15.208 63.3884 13.64 65.5004 12.52C67.6444 11.368 70.0924 10.792 72.8444 10.792C75.5644 10.792 77.9964 11.368 80.1404 12.52C82.2844 13.64 83.9644 15.192 85.1804 17.176C86.3964 19.16 87.0044 21.464 87.0044 24.088C87.0044 26.648 86.3964 28.936 85.1804 30.952C83.9644 32.936 82.2844 34.504 80.1404 35.656C77.9964 36.808 75.5644 37.384 72.8444 37.384ZM72.8444 31.24C74.0924 31.24 75.2124 30.952 76.2044 30.376C77.1964 29.8 77.9804 28.984 78.5564 27.928C79.1324 26.84 79.4204 25.56 79.4204 24.088C79.4204 22.584 79.1324 21.304 78.5564 20.248C77.9804 19.192 77.1964 18.376 76.2044 17.8C75.2124 17.224 74.0924 16.936 72.8444 16.936C71.5964 16.936 70.4764 17.224 69.4844 17.8C68.4924 18.376 67.6924 19.192 67.0844 20.248C66.5084 21.304 66.2204 22.584 66.2204 24.088C66.2204 25.56 66.5084 26.84 67.0844 27.928C67.6924 28.984 68.4924 29.8 69.4844 30.376C70.4764 30.952 71.5964 31.24 72.8444 31.24ZM92.1547 37V11.176H99.5947V26.536L112.171 11.176H119.035V37H111.595V21.64L99.0667 37H92.1547ZM126.233 37V11.176H134.057L143.801 28.84H140.681L151.097 11.176H158.105L158.201 37H151.433V18.856L152.585 19.624L143.705 34.504H140.537L131.609 19.096L133.001 18.76V37H126.233ZM177.469 37.384C174.717 37.384 172.269 36.808 170.125 35.656C168.013 34.504 166.333 32.936 165.085 30.952C163.869 28.936 163.261 26.648 163.261 24.088C163.261 21.496 163.869 19.208 165.085 17.224C166.333 15.208 168.013 13.64 170.125 12.52C172.269 11.368 174.717 10.792 177.469 10.792C180.189 10.792 182.621 11.368 184.765 12.52C186.909 13.64 188.589 15.192 189.805 17.176C191.021 19.16 191.629 21.464 191.629 24.088C191.629 26.648 191.021 28.936 189.805 30.952C188.589 32.936 186.909 34.504 184.765 35.656C182.621 36.808 180.189 37.384 177.469 37.384ZM177.469 31.24C178.717 31.24 179.837 30.952 180.829 30.376C181.821 29.8 182.605 28.984 183.181 27.928C183.757 26.84 184.045 25.56 184.045 24.088C184.045 22.584 183.757 21.304 183.181 20.248C182.605 19.192 181.821 18.376 180.829 17.8C179.837 17.224 178.717 16.936 177.469 16.936C176.221 16.936 175.101 17.224 174.109 17.8C173.117 18.376 172.317 19.192 171.709 20.248C171.133 21.304 170.845 22.584 170.845 24.088C170.845 25.56 171.133 26.84 171.709 27.928C172.317 28.984 173.117 29.8 174.109 30.376C175.101 30.952 176.221 31.24 177.469 31.24ZM209.068 37.384C206.284 37.384 203.804 36.824 201.628 35.704C199.452 34.552 197.74 32.968 196.492 30.952C195.276 28.936 194.668 26.648 194.668 24.088C194.668 21.496 195.276 19.208 196.492 17.224C197.74 15.208 199.452 13.64 201.628 12.52C203.804 11.368 206.284 10.792 209.068 10.792C211.788 10.792 214.156 11.368 216.172 12.52C218.188 13.64 219.676 15.256 220.636 17.368L214.828 20.488C214.156 19.272 213.308 18.376 212.284 17.8C211.292 17.224 210.204 16.936 209.02 16.936C207.74 16.936 206.588 17.224 205.564 17.8C204.54 18.376 203.724 19.192 203.116 20.248C202.54 21.304 202.252 22.584 202.252 24.088C202.252 25.592 202.54 26.872 203.116 27.928C203.724 28.984 204.54 29.8 205.564 30.376C206.588 30.952 207.74 31.24 209.02 31.24C210.204 31.24 211.292 30.968 212.284 30.424C213.308 29.848 214.156 28.936 214.828 27.688L220.636 30.856C219.676 32.936 218.188 34.552 216.172 35.704C214.156 36.824 211.788 37.384 209.068 37.384ZM230.659 37V15.592L232.339 17.32H221.923V11.176H246.835V17.32H236.419L238.099 15.592V37H230.659ZM264.795 19.432C268.187 19.464 270.763 20.232 272.523 21.736C274.315 23.208 275.211 25.304 275.211 28.024C275.211 30.872 274.203 33.096 272.187 34.696C270.171 36.264 267.371 37.048 263.787 37.048L250.827 37V11.176H258.267V19.432H264.795ZM263.115 31.72C264.555 31.752 265.659 31.448 266.427 30.808C267.195 30.168 267.579 29.208 267.579 27.928C267.579 26.648 267.195 25.736 266.427 25.192C265.659 24.616 264.555 24.312 263.115 24.28L258.267 24.232V31.72H263.115ZM299.003 37V15.592L300.683 17.32H290.267V11.176H315.179V17.32H304.763L306.443 15.592V37H299.003ZM330.716 37.384C327.772 37.384 325.18 36.808 322.94 35.656C320.732 34.504 319.02 32.936 317.804 30.952C316.588 28.936 315.98 26.648 315.98 24.088C315.98 21.496 316.572 19.208 317.756 17.224C318.972 15.208 320.62 13.64 322.7 12.52C324.78 11.368 327.132 10.792 329.756 10.792C332.284 10.792 334.556 11.336 336.572 12.424C338.62 13.48 340.236 15.016 341.42 17.032C342.604 19.016 343.196 21.4 343.196 24.184C343.196 24.472 343.18 24.808 343.148 25.192C343.116 25.544 343.084 25.88 343.052 26.2H322.076V21.832H339.116L336.236 23.128C336.236 21.784 335.964 20.616 335.42 19.624C334.876 18.632 334.124 17.864 333.164 17.32C332.204 16.744 331.084 16.456 329.804 16.456C328.524 16.456 327.388 16.744 326.396 17.32C325.436 17.864 324.684 18.648 324.14 19.672C323.596 20.664 323.324 21.848 323.324 23.224V24.376C323.324 25.784 323.628 27.032 324.236 28.12C324.876 29.176 325.756 29.992 326.876 30.568C328.028 31.112 329.372 31.384 330.908 31.384C332.284 31.384 333.484 31.176 334.508 30.76C335.564 30.344 336.524 29.72 337.388 28.888L341.372 33.208C340.188 34.552 338.7 35.592 336.908 36.328C335.116 37.032 333.052 37.384 330.716 37.384ZM344.777 37L356.345 21.832L356.201 25.96L345.113 11.176H353.513L360.521 20.824L357.353 20.92L364.601 11.176H372.569L361.433 25.816V21.784L372.953 37H364.457L357.113 26.728L360.233 27.16L352.937 37H344.777ZM376.639 37V11.176H384.079V21.256H395.311V11.176H402.799V37H395.311V27.352H384.079V37H376.639ZM422.063 37.384C419.311 37.384 416.863 36.808 414.719 35.656C412.607 34.504 410.927 32.936 409.679 30.952C408.463 28.936 407.855 26.648 407.855 24.088C407.855 21.496 408.463 19.208 409.679 17.224C410.927 15.208 412.607 13.64 414.719 12.52C416.863 11.368 419.311 10.792 422.063 10.792C424.783 10.792 427.215 11.368 429.359 12.52C431.503 13.64 433.183 15.192 434.399 17.176C435.615 19.16 436.223 21.464 436.223 24.088C436.223 26.648 435.615 28.936 434.399 30.952C433.183 32.936 431.503 34.504 429.359 35.656C427.215 36.808 424.783 37.384 422.063 37.384ZM422.063 31.24C423.311 31.24 424.431 30.952 425.423 30.376C426.415 29.8 427.199 28.984 427.775 27.928C428.351 26.84 428.639 25.56 428.639 24.088C428.639 22.584 428.351 21.304 427.775 20.248C427.199 19.192 426.415 18.376 425.423 17.8C424.431 17.224 423.311 16.936 422.063 16.936C420.815 16.936 419.695 17.224 418.703 17.8C417.711 18.376 416.911 19.192 416.303 20.248C415.727 21.304 415.439 22.584 415.439 24.088C415.439 25.56 415.727 26.84 416.303 27.928C416.911 28.984 417.711 29.8 418.703 30.376C419.695 30.952 420.815 31.24 422.063 31.24ZM437.734 36.952L438.118 30.808C438.31 30.84 438.502 30.872 438.694 30.904C438.886 30.904 439.062 30.904 439.222 30.904C440.118 30.904 440.822 30.648 441.334 30.136C441.846 29.624 442.23 28.936 442.486 28.072C442.742 27.176 442.918 26.168 443.014 25.048C443.142 23.928 443.238 22.76 443.302 21.544L443.686 11.176H465.766V37H458.278V15.496L459.958 17.32H448.63L450.214 15.4L449.878 21.88C449.782 24.184 449.59 26.296 449.302 28.216C449.046 30.136 448.614 31.8 448.006 33.208C447.398 34.584 446.582 35.656 445.558 36.424C444.534 37.16 443.222 37.528 441.622 37.528C441.046 37.528 440.438 37.48 439.798 37.384C439.158 37.288 438.47 37.144 437.734 36.952ZM485.063 37.384C482.311 37.384 479.863 36.808 477.719 35.656C475.607 34.504 473.927 32.936 472.679 30.952C471.463 28.936 470.855 26.648 470.855 24.088C470.855 21.496 471.463 19.208 472.679 17.224C473.927 15.208 475.607 13.64 477.719 12.52C479.863 11.368 482.311 10.792 485.063 10.792C487.783 10.792 490.215 11.368 492.359 12.52C494.503 13.64 496.183 15.192 497.399 17.176C498.615 19.16 499.223 21.464 499.223 24.088C499.223 26.648 498.615 28.936 497.399 30.952C496.183 32.936 494.503 34.504 492.359 35.656C490.215 36.808 487.783 37.384 485.063 37.384ZM485.063 31.24C486.311 31.24 487.431 30.952 488.423 30.376C489.415 29.8 490.199 28.984 490.775 27.928C491.351 26.84 491.639 25.56 491.639 24.088C491.639 22.584 491.351 21.304 490.775 20.248C490.199 19.192 489.415 18.376 488.423 17.8C487.431 17.224 486.311 16.936 485.063 16.936C483.815 16.936 482.695 17.224 481.703 17.8C480.711 18.376 479.911 19.192 479.303 20.248C478.727 21.304 478.439 22.584 478.439 24.088C478.439 25.56 478.727 26.84 479.303 27.928C479.911 28.984 480.711 29.8 481.703 30.376C482.695 30.952 483.815 31.24 485.063 31.24ZM504.373 37V11.176H525.061V17.32H510.133L511.813 15.688V37H504.373ZM529.03 37V11.176H536.47V26.536L549.046 11.176H555.91V37H548.47V21.64L535.942 37H529.03ZM563.108 37V11.176H570.548V26.536L583.124 11.176H589.988V37H582.548V21.64L570.02 37H563.108ZM576.068 8.392C573.252 8.392 571.14 7.784 569.732 6.568C568.324 5.32 567.604 3.448 567.572 0.951998H572.468C572.5 2.04 572.804 2.904 573.38 3.544C573.956 4.184 574.836 4.504 576.02 4.504C577.172 4.504 578.052 4.184 578.66 3.544C579.3 2.904 579.62 2.04 579.62 0.951998H584.612C584.612 3.448 583.892 5.32 582.452 6.568C581.012 7.784 578.884 8.392 576.068 8.392Z" fill="#2D2D2D"/>
<path d="M88.6132 85.448L81.8452 76.088L88.6132 66.68H95.3332L88.7572 76.088L95.3332 85.448H88.6132ZM99.4612 85.448L92.6932 76.088L99.4612 66.68H106.181L99.6052 76.088L106.181 85.448H99.4612ZM111.91 89.528C111.334 89.528 110.726 89.48 110.086 89.384C109.478 89.288 108.806 89.16 108.07 89L108.55 82.424C108.998 82.552 109.462 82.616 109.942 82.616C111.254 82.616 112.278 82.088 113.014 81.032C113.75 79.944 114.278 78.392 114.598 76.376C114.918 74.36 115.126 71.912 115.222 69.032L115.702 55.4H141.526V89H133.846V59.96L135.622 61.736H120.79L122.374 59.864L122.086 68.744C121.99 72.04 121.766 74.968 121.414 77.528C121.062 80.088 120.518 82.264 119.782 84.056C119.046 85.848 118.038 87.208 116.758 88.136C115.478 89.064 113.862 89.528 111.91 89.528ZM149.342 89V63.176H156.782V78.536L169.358 63.176H176.222V89H168.782V73.64L156.254 89H149.342ZM201.18 85.64V69.32H192.732L192.588 72.632C192.524 74.008 192.444 75.32 192.348 76.568C192.252 77.816 192.06 78.952 191.772 79.976C191.516 80.968 191.132 81.816 190.62 82.52C190.108 83.192 189.42 83.656 188.556 83.912L181.164 82.856C182.092 82.856 182.844 82.584 183.42 82.04C183.996 81.464 184.444 80.68 184.764 79.688C185.084 78.664 185.324 77.512 185.484 76.232C185.644 74.92 185.756 73.544 185.82 72.104L186.156 63.176H208.668V85.64H201.18ZM180.3 94.568V82.856H212.364V94.568H205.404V89H187.26V94.568H180.3ZM252.99 89L242.526 72.824L248.814 69.032L261.822 89H252.99ZM231.15 89V55.4H238.878V89H231.15ZM236.622 75.464V68.984H248.334V75.464H236.622ZM249.534 73.064L242.382 72.2L253.278 55.4H261.486L249.534 73.064ZM276.61 89.384C273.858 89.384 271.41 88.808 269.266 87.656C267.154 86.504 265.474 84.936 264.226 82.952C263.01 80.936 262.402 78.648 262.402 76.088C262.402 73.496 263.01 71.208 264.226 69.224C265.474 67.208 267.154 65.64 269.266 64.52C271.41 63.368 273.858 62.792 276.61 62.792C279.33 62.792 281.762 63.368 283.906 64.52C286.05 65.64 287.73 67.192 288.946 69.176C290.162 71.16 290.77 73.464 290.77 76.088C290.77 78.648 290.162 80.936 288.946 82.952C287.73 84.936 286.05 86.504 283.906 87.656C281.762 88.808 279.33 89.384 276.61 89.384ZM276.61 83.24C277.858 83.24 278.978 82.952 279.97 82.376C280.962 81.8 281.746 80.984 282.322 79.928C282.898 78.84 283.186 77.56 283.186 76.088C283.186 74.584 282.898 73.304 282.322 72.248C281.746 71.192 280.962 70.376 279.97 69.8C278.978 69.224 277.858 68.936 276.61 68.936C275.362 68.936 274.242 69.224 273.25 69.8C272.258 70.376 271.458 71.192 270.85 72.248C270.274 73.304 269.986 74.584 269.986 76.088C269.986 77.56 270.274 78.84 270.85 79.928C271.458 80.984 272.258 81.8 273.25 82.376C274.242 82.952 275.362 83.24 276.61 83.24ZM295.92 89V63.176H303.36V73.256H314.592V63.176H322.08V89H314.592V79.352H303.36V89H295.92ZM329.248 89V63.176H342.448C345.68 63.176 348.208 63.768 350.032 64.952C351.856 66.104 352.768 67.736 352.768 69.848C352.768 71.96 351.904 73.624 350.176 74.84C348.48 76.024 346.224 76.616 343.408 76.616L344.176 74.888C347.312 74.888 349.648 75.464 351.184 76.616C352.752 77.768 353.536 79.448 353.536 81.656C353.536 83.928 352.672 85.72 350.944 87.032C349.216 88.344 346.576 89 343.024 89H329.248ZM336.112 83.912H342.4C343.776 83.912 344.8 83.688 345.472 83.24C346.176 82.76 346.528 82.04 346.528 81.08C346.528 80.088 346.208 79.368 345.568 78.92C344.928 78.44 343.92 78.2 342.544 78.2H336.112V83.912ZM336.112 73.784H341.776C343.088 73.784 344.064 73.544 344.704 73.064C345.376 72.584 345.712 71.896 345.712 71C345.712 70.072 345.376 69.384 344.704 68.936C344.064 68.488 343.088 68.264 341.776 68.264H336.112V73.784ZM371.732 89.384C368.788 89.384 366.196 88.808 363.956 87.656C361.748 86.504 360.036 84.936 358.82 82.952C357.604 80.936 356.996 78.648 356.996 76.088C356.996 73.496 357.588 71.208 358.772 69.224C359.988 67.208 361.636 65.64 363.716 64.52C365.796 63.368 368.148 62.792 370.772 62.792C373.3 62.792 375.572 63.336 377.588 64.424C379.636 65.48 381.252 67.016 382.436 69.032C383.62 71.016 384.212 73.4 384.212 76.184C384.212 76.472 384.196 76.808 384.164 77.192C384.132 77.544 384.1 77.88 384.068 78.2H363.092V73.832H380.132L377.252 75.128C377.252 73.784 376.98 72.616 376.436 71.624C375.892 70.632 375.14 69.864 374.18 69.32C373.22 68.744 372.1 68.456 370.82 68.456C369.54 68.456 368.404 68.744 367.412 69.32C366.452 69.864 365.7 70.648 365.156 71.672C364.612 72.664 364.34 73.848 364.34 75.224V76.376C364.34 77.784 364.644 79.032 365.252 80.12C365.892 81.176 366.772 81.992 367.892 82.568C369.044 83.112 370.388 83.384 371.924 83.384C373.3 83.384 374.5 83.176 375.524 82.76C376.58 82.344 377.54 81.72 378.404 80.888L382.388 85.208C381.204 86.552 379.716 87.592 377.924 88.328C376.132 89.032 374.068 89.384 371.732 89.384ZM389.952 89V63.176H397.392V78.536L409.968 63.176H416.832V89H409.392V73.64L396.864 89H389.952ZM402.912 60.392C400.096 60.392 397.984 59.784 396.576 58.568C395.168 57.32 394.448 55.448 394.416 52.952H399.312C399.344 54.04 399.648 54.904 400.224 55.544C400.8 56.184 401.68 56.504 402.864 56.504C404.016 56.504 404.896 56.184 405.504 55.544C406.144 54.904 406.464 54.04 406.464 52.952H411.456C411.456 55.448 410.736 57.32 409.296 58.568C407.856 59.784 405.728 60.392 402.912 60.392ZM436.654 89.384C433.71 89.384 431.118 88.808 428.878 87.656C426.67 86.504 424.958 84.936 423.742 82.952C422.526 80.936 421.918 78.648 421.918 76.088C421.918 73.496 422.51 71.208 423.694 69.224C424.91 67.208 426.558 65.64 428.638 64.52C430.718 63.368 433.07 62.792 435.694 62.792C438.222 62.792 440.494 63.336 442.51 64.424C444.558 65.48 446.174 67.016 447.358 69.032C448.542 71.016 449.134 73.4 449.134 76.184C449.134 76.472 449.118 76.808 449.086 77.192C449.054 77.544 449.022 77.88 448.99 78.2H428.014V73.832H445.054L442.174 75.128C442.174 73.784 441.902 72.616 441.358 71.624C440.814 70.632 440.062 69.864 439.102 69.32C438.142 68.744 437.022 68.456 435.742 68.456C434.462 68.456 433.326 68.744 432.334 69.32C431.374 69.864 430.622 70.648 430.078 71.672C429.534 72.664 429.262 73.848 429.262 75.224V76.376C429.262 77.784 429.566 79.032 430.174 80.12C430.814 81.176 431.694 81.992 432.814 82.568C433.966 83.112 435.31 83.384 436.846 83.384C438.222 83.384 439.422 83.176 440.446 82.76C441.502 82.344 442.462 81.72 443.326 80.888L447.31 85.208C446.126 86.552 444.638 87.592 442.846 88.328C441.054 89.032 438.99 89.384 436.654 89.384ZM470.089 89.384C467.913 89.384 466.009 88.904 464.377 87.944C462.745 86.984 461.465 85.528 460.537 83.576C459.641 81.592 459.193 79.096 459.193 76.088C459.193 73.048 459.625 70.552 460.489 68.6C461.353 66.648 462.601 65.192 464.233 64.232C465.865 63.272 467.817 62.792 470.089 62.792C472.521 62.792 474.697 63.352 476.617 64.472C478.569 65.56 480.105 67.096 481.225 69.08C482.377 71.064 482.953 73.4 482.953 76.088C482.953 78.808 482.377 81.16 481.225 83.144C480.105 85.128 478.569 86.664 476.617 87.752C474.697 88.84 472.521 89.384 470.089 89.384ZM454.825 98.312V63.176H461.977V68.456L461.833 76.136L462.313 83.768V98.312H454.825ZM468.793 83.24C470.041 83.24 471.145 82.952 472.105 82.376C473.097 81.8 473.881 80.984 474.457 79.928C475.065 78.84 475.369 77.56 475.369 76.088C475.369 74.584 475.065 73.304 474.457 72.248C473.881 71.192 473.097 70.376 472.105 69.8C471.145 69.224 470.041 68.936 468.793 68.936C467.545 68.936 466.425 69.224 465.433 69.8C464.441 70.376 463.657 71.192 463.081 72.248C462.505 73.304 462.217 74.584 462.217 76.088C462.217 77.56 462.505 78.84 463.081 79.928C463.657 80.984 464.441 81.8 465.433 82.376C466.425 82.952 467.545 83.24 468.793 83.24ZM492.522 85.448H485.802L492.378 76.088L485.802 66.68H492.522L499.29 76.088L492.522 85.448ZM503.37 85.448H496.65L503.226 76.088L496.65 66.68H503.37L510.138 76.088L503.37 85.448Z" fill="#FF6600"/>
</svg>
